<mxfile host="app.diagrams.net" agent="Mozilla/5.0 (Windows NT 10.0; Win64; x64) AppleWebKit/537.36 (KHTML, like Gecko) Chrome/131.0.0.0 Safari/537.36" version="24.9.3">
  <diagram name="Strona-1" id="3PLqS_nXlu-m22dNtR00">
    <mxGraphModel dx="1827" dy="530" grid="1" gridSize="10" guides="1" tooltips="1" connect="1" arrows="1" fold="1" page="1" pageScale="1" pageWidth="827" pageHeight="1169" math="0" shadow="0">
      <root>
        <mxCell id="0" />
        <mxCell id="1" parent="0" />
        <mxCell id="4QJsUeSxo5gIAM0FvZCt-14" style="edgeStyle=orthogonalEdgeStyle;rounded=0;orthogonalLoop=1;jettySize=auto;html=1;exitX=1;exitY=0.25;exitDx=0;exitDy=0;entryX=0;entryY=0.25;entryDx=0;entryDy=0;" edge="1" parent="1" source="4QJsUeSxo5gIAM0FvZCt-1" target="4QJsUeSxo5gIAM0FvZCt-2">
          <mxGeometry relative="1" as="geometry" />
        </mxCell>
        <mxCell id="4QJsUeSxo5gIAM0FvZCt-1" value="Kontroler" style="rounded=0;whiteSpace=wrap;html=1;" vertex="1" parent="1">
          <mxGeometry x="150" y="120" width="80" height="120" as="geometry" />
        </mxCell>
        <mxCell id="4QJsUeSxo5gIAM0FvZCt-15" style="edgeStyle=orthogonalEdgeStyle;rounded=0;orthogonalLoop=1;jettySize=auto;html=1;exitX=1;exitY=0.25;exitDx=0;exitDy=0;entryX=0;entryY=0.25;entryDx=0;entryDy=0;" edge="1" parent="1" source="4QJsUeSxo5gIAM0FvZCt-2" target="4QJsUeSxo5gIAM0FvZCt-4">
          <mxGeometry relative="1" as="geometry" />
        </mxCell>
        <mxCell id="4QJsUeSxo5gIAM0FvZCt-19" style="edgeStyle=orthogonalEdgeStyle;rounded=0;orthogonalLoop=1;jettySize=auto;html=1;exitX=0;exitY=0.75;exitDx=0;exitDy=0;entryX=1;entryY=0.75;entryDx=0;entryDy=0;" edge="1" parent="1" source="4QJsUeSxo5gIAM0FvZCt-2" target="4QJsUeSxo5gIAM0FvZCt-1">
          <mxGeometry relative="1" as="geometry" />
        </mxCell>
        <mxCell id="4QJsUeSxo5gIAM0FvZCt-2" value="Usługa" style="rounded=0;whiteSpace=wrap;html=1;" vertex="1" parent="1">
          <mxGeometry x="270" y="120" width="80" height="120" as="geometry" />
        </mxCell>
        <mxCell id="4QJsUeSxo5gIAM0FvZCt-16" style="edgeStyle=orthogonalEdgeStyle;rounded=0;orthogonalLoop=1;jettySize=auto;html=1;exitX=1;exitY=0.25;exitDx=0;exitDy=0;entryX=0;entryY=0.25;entryDx=0;entryDy=0;" edge="1" parent="1" source="4QJsUeSxo5gIAM0FvZCt-4" target="4QJsUeSxo5gIAM0FvZCt-5">
          <mxGeometry relative="1" as="geometry" />
        </mxCell>
        <mxCell id="4QJsUeSxo5gIAM0FvZCt-18" style="edgeStyle=orthogonalEdgeStyle;rounded=0;orthogonalLoop=1;jettySize=auto;html=1;exitX=0;exitY=0.75;exitDx=0;exitDy=0;entryX=1;entryY=0.75;entryDx=0;entryDy=0;" edge="1" parent="1" source="4QJsUeSxo5gIAM0FvZCt-4" target="4QJsUeSxo5gIAM0FvZCt-2">
          <mxGeometry relative="1" as="geometry" />
        </mxCell>
        <mxCell id="4QJsUeSxo5gIAM0FvZCt-4" value="Repozytorium" style="rounded=0;whiteSpace=wrap;html=1;" vertex="1" parent="1">
          <mxGeometry x="390" y="120" width="80" height="120" as="geometry" />
        </mxCell>
        <mxCell id="4QJsUeSxo5gIAM0FvZCt-17" style="edgeStyle=orthogonalEdgeStyle;rounded=0;orthogonalLoop=1;jettySize=auto;html=1;exitX=0;exitY=0.75;exitDx=0;exitDy=0;entryX=1;entryY=0.75;entryDx=0;entryDy=0;" edge="1" parent="1" source="4QJsUeSxo5gIAM0FvZCt-5" target="4QJsUeSxo5gIAM0FvZCt-4">
          <mxGeometry relative="1" as="geometry" />
        </mxCell>
        <mxCell id="4QJsUeSxo5gIAM0FvZCt-5" value="Obiekt&lt;br&gt;modelu" style="rounded=0;whiteSpace=wrap;html=1;" vertex="1" parent="1">
          <mxGeometry x="510" y="120" width="80" height="120" as="geometry" />
        </mxCell>
        <mxCell id="4QJsUeSxo5gIAM0FvZCt-22" value="Żądanie" style="endArrow=classic;html=1;rounded=0;entryX=0;entryY=0.25;entryDx=0;entryDy=0;exitX=1.03;exitY=0.123;exitDx=0;exitDy=0;exitPerimeter=0;" edge="1" parent="1" source="4QJsUeSxo5gIAM0FvZCt-25" target="4QJsUeSxo5gIAM0FvZCt-1">
          <mxGeometry width="50" height="50" relative="1" as="geometry">
            <mxPoint x="110" y="150" as="sourcePoint" />
            <mxPoint x="180" y="390" as="targetPoint" />
          </mxGeometry>
        </mxCell>
        <mxCell id="4QJsUeSxo5gIAM0FvZCt-23" value="" style="endArrow=classic;html=1;rounded=0;exitX=0;exitY=0.75;exitDx=0;exitDy=0;entryX=1.004;entryY=0.872;entryDx=0;entryDy=0;entryPerimeter=0;" edge="1" parent="1" source="4QJsUeSxo5gIAM0FvZCt-1" target="4QJsUeSxo5gIAM0FvZCt-25">
          <mxGeometry width="50" height="50" relative="1" as="geometry">
            <mxPoint x="170" y="340" as="sourcePoint" />
            <mxPoint x="110" y="210" as="targetPoint" />
          </mxGeometry>
        </mxCell>
        <mxCell id="4QJsUeSxo5gIAM0FvZCt-27" value="Widok&lt;br&gt;JSON" style="edgeLabel;html=1;align=center;verticalAlign=middle;resizable=0;points=[];" vertex="1" connectable="0" parent="4QJsUeSxo5gIAM0FvZCt-23">
          <mxGeometry x="-0.0945" y="2" relative="1" as="geometry">
            <mxPoint as="offset" />
          </mxGeometry>
        </mxCell>
        <mxCell id="4QJsUeSxo5gIAM0FvZCt-25" value="[Klient]" style="rounded=1;whiteSpace=wrap;html=1;" vertex="1" parent="1">
          <mxGeometry x="-20" y="140" width="80" height="80" as="geometry" />
        </mxCell>
      </root>
    </mxGraphModel>
  </diagram>
</mxfile>
